<svg width="24" height="24" viewBox="0 0 24 24" fill="none" xmlns="http://www.w3.org/2000/svg">
<path fill-rule="evenodd" clip-rule="evenodd" d="M5.77824 17.2928C5.38772 17.6833 5.38772 18.3164 5.77824 18.707C6.16877 19.0975 6.80193 19.0975 7.19246 18.707L12.2425 13.6569L17.2928 18.7072C17.6833 19.0978 18.3165 19.0978 18.707 18.7072C19.0975 18.3167 19.0975 17.6836 18.707 17.293L13.6567 12.2427L18.707 7.19242C19.0975 6.8019 19.0975 6.16873 18.707 5.77821C18.3165 5.38768 17.6833 5.38768 17.2928 5.77821L12.2425 10.8285L7.19246 5.77848C6.80193 5.38795 6.16877 5.38795 5.77824 5.77848C5.38772 6.169 5.38772 6.80217 5.77824 7.19269L10.8283 12.2427L5.77824 17.2928Z" fill="black"/>
</svg>
